<svg width="33" height="32" viewBox="0 0 33 32" fill="none" xmlns="http://www.w3.org/2000/svg">
<path d="M27.6981 7.69211C28.0288 6.55508 29.2298 5.91235 30.3593 6.26794C31.457 6.61352 32.0757 7.77454 31.7504 8.87843L27.3503 23.8121L23.2822 22.8745L27.6981 7.69211Z" fill="#0D0D0D"/>
<path d="M26.9646 8.53064L31.3004 9.77818L27.1708 23.7897L22.8018 22.7787L26.9646 8.53064Z" fill="#AA3FFF"/>
<path d="M26.9646 8.53064L31.3004 9.77818L27.1708 23.7897L22.8018 22.7787L26.9646 8.53064Z" stroke="#0D0D0D" stroke-width="0.318937" stroke-linejoin="round"/>
<path d="M27.6784 7.51901L20.5952 31.4101L17.994 27.3282L13.8722 29.1291L11.5512 25.4874L7.46921 27.3282L4.94798 23.6065L0.666016 25.4874L7.94932 2.0765C8.37085 0.956013 9.47003 0.0595388 12.8316 0.955968L30.1995 6.12924C30.2556 6.14368 30.3111 6.16023 30.3659 6.17879L30.1995 6.12924C29.268 5.88935 28.1761 6.22881 27.6784 7.51901Z" fill="white"/>
<path d="M31.6004 8.75955C32.1328 7.55135 31.3763 6.52132 30.3659 6.17879M30.3659 6.17879C29.4016 5.85192 28.2061 6.15112 27.6784 7.51901L20.5952 31.4101L17.994 27.3282L13.8722 29.1291L11.5512 25.4874L7.46921 27.3282L4.94798 23.6065L0.666016 25.4874L7.94932 2.0765C8.37085 0.956013 9.47003 0.0595388 12.8316 0.955968L30.3659 6.17879Z" stroke="#0D0D0D" stroke-width="0.318937" stroke-linecap="round" stroke-linejoin="round"/>
<path d="M7.7091 10.9207L22.6361 15.4027M7.06889 13.2817L22.1959 17.7638M6.30859 15.4027L21.3556 19.8848" stroke="#0D0D0D" stroke-width="0.318937" stroke-linecap="round" stroke-linejoin="round"/>
<path fill-rule="evenodd" clip-rule="evenodd" d="M2.38393 19.9659L0.666016 25.4879L4.94798 23.607L7.46921 27.3287L11.5512 25.4879L13.8722 29.1296L17.994 27.3287L20.5952 31.4106L22.1609 26.1298L2.38393 19.9659ZM29.7847 6.06294C29.9248 6.07215 30.0639 6.0948 30.1995 6.12974L30.3659 6.17929C30.3111 6.16073 30.2556 6.14418 30.1995 6.12974L29.8008 6.01099L29.7847 6.06294Z" fill="#FFF066"/>
<path d="M0.666016 25.4879L0.513746 25.4405C0.495187 25.5001 0.513173 25.5651 0.559758 25.6068C0.606344 25.6484 0.672948 25.659 0.730149 25.6339L0.666016 25.4879ZM2.38393 19.9659L2.43138 19.8137C2.39099 19.8011 2.34725 19.8051 2.30979 19.8247C2.27234 19.8444 2.24423 19.8782 2.23166 19.9186L2.38393 19.9659ZM4.94798 23.607L5.08001 23.5175C5.03684 23.4538 4.95432 23.43 4.88385 23.461L4.94798 23.607ZM7.46921 27.3287L7.33719 27.4182C7.38068 27.4824 7.46407 27.506 7.53477 27.4741L7.46921 27.3287ZM11.5512 25.4879L11.6857 25.4022C11.6431 25.3353 11.5579 25.3099 11.4856 25.3425L11.5512 25.4879ZM13.8722 29.1296L13.7377 29.2153C13.7799 29.2815 13.8641 29.3071 13.936 29.2757L13.8722 29.1296ZM17.994 27.3287L18.1285 27.243C18.0863 27.1768 18.0022 27.1511 17.9302 27.1826L17.994 27.3287ZM20.5952 31.4106L20.4607 31.4963C20.4943 31.549 20.5555 31.5772 20.6174 31.5685C20.6792 31.5598 20.7303 31.5158 20.7481 31.4559L20.5952 31.4106ZM22.1609 26.1298L22.3138 26.1751C22.3385 26.0915 22.2916 26.0035 22.2083 25.9775L22.1609 26.1298ZM29.7847 6.06294L29.6324 6.01549C29.6179 6.06214 29.6255 6.11289 29.6532 6.15318C29.6808 6.19347 29.7254 6.21886 29.7742 6.22207L29.7847 6.06294ZM30.3659 6.17929L30.3204 6.33212C30.4037 6.35693 30.4915 6.31048 30.5178 6.22766C30.5442 6.14484 30.4994 6.05617 30.4171 6.02826L30.3659 6.17929ZM29.8008 6.01099L29.8464 5.85815C29.7627 5.83324 29.6746 5.8802 29.6486 5.96353L29.8008 6.01099ZM31.4545 8.69575C31.4189 8.77635 31.4555 8.87047 31.5361 8.90598C31.6167 8.9415 31.7108 8.90495 31.7463 8.82436L31.4545 8.69575ZM30.4171 6.02826C30.3337 5.99999 30.2431 6.04468 30.2149 6.12809C30.1866 6.2115 30.2313 6.30204 30.3147 6.33032L30.4171 6.02826ZM0.818285 25.5352L2.5362 20.0133L2.23166 19.9186L0.513746 25.4405L0.818285 25.5352ZM4.88385 23.461L0.601883 25.3419L0.730149 25.6339L5.01212 23.753L4.88385 23.461ZM7.60124 27.2393L5.08001 23.5175L4.81596 23.6964L7.33719 27.4182L7.60124 27.2393ZM11.4856 25.3425L7.40365 27.1833L7.53477 27.4741L11.6167 25.6332L11.4856 25.3425ZM14.0067 29.0438L11.6857 25.4022L11.4167 25.5736L13.7377 29.2153L14.0067 29.0438ZM17.9302 27.1826L13.8084 28.9834L13.936 29.2757L18.0579 27.4748L17.9302 27.1826ZM20.7297 31.3249L18.1285 27.243L17.8596 27.4144L20.4607 31.4963L20.7297 31.3249ZM22.008 26.0845L20.4423 31.3653L20.7481 31.4559L22.3138 26.1751L22.008 26.0845ZM22.2083 25.9775L2.43138 19.8137L2.33648 20.1182L22.1134 26.282L22.2083 25.9775ZM30.2393 5.97531C30.0943 5.93797 29.9454 5.9137 29.7951 5.90382L29.7742 6.22207C29.9042 6.23061 30.0334 6.25164 30.1598 6.28417L30.2393 5.97531ZM30.4114 6.02646L30.245 5.97691L30.154 6.28257L30.3204 6.33212L30.4114 6.02646ZM30.1598 6.28417C30.212 6.29762 30.2637 6.31302 30.3147 6.33032L30.4171 6.02826C30.3586 6.00843 30.2993 5.99075 30.2393 5.97531L30.1598 6.28417ZM29.7553 6.16382L30.154 6.28257L30.245 5.97691L29.8464 5.85815L29.7553 6.16382ZM29.6486 5.96353L29.6324 6.01549L29.9369 6.11039L29.9531 6.05844L29.6486 5.96353ZM31.7463 8.82436C32.0325 8.17495 31.9743 7.56313 31.7013 7.06805C31.4308 6.57748 30.955 6.21061 30.4171 6.02826L30.3147 6.33032C30.7872 6.49051 31.1948 6.80991 31.422 7.22205C31.6468 7.62966 31.7007 8.13696 31.4545 8.69575L31.7463 8.82436Z" fill="#0D0D0D"/>
</svg>
