<svg width="21" height="22" viewBox="0 0 21 22" fill="none" xmlns="http://www.w3.org/2000/svg">
<path d="M20.9629 9.33521V5.57739L13.9629 9.57739V13.5774L20.9629 9.33521Z" fill="white"/>
<path d="M20.2676 17.4728V9.09399L13.2676 13.3995V21.6748L20.2676 17.4728Z" fill="white"/>
<path d="M6.58078 3.60096L20.2187 5.7141L13.8393 9.35944L13.7134 9.43142V9.5765V13.2726L0.286133 10.6354V6.99039L6.58078 3.60096Z" fill="#8736C7" stroke="white" stroke-width="0.5"/>
<path d="M5.15918 6.54112C5.15918 2.58642 6.70856 0.325439 9.73657 0.325439C13.3846 0.325439 15.4513 4.62387 15.4513 7.92559" stroke="white" stroke-width="0.5" stroke-linejoin="round"/>
<path d="M1.01758 18.808V10.7886L13.0176 13.1488V21.3657L1.01758 18.808Z" fill="#8736C7" stroke="white" stroke-width="0.5"/>
<path d="M8.81641 17.469L11.5581 18.0591V18.7343L8.81641 18.1443V17.469Z" fill="white"/>
</svg>
