<svg width="19" height="20" viewBox="0 0 19 20" fill="none" xmlns="http://www.w3.org/2000/svg">
<path fill-rule="evenodd" clip-rule="evenodd" d="M9.96794 1.25332C12.6933 1.25332 14.9289 3.35034 15.1497 6.01875H4.78616C5.00695 3.35034 7.2426 1.25332 9.96794 1.25332ZM18.3638 6.01875H15.7516C15.5293 3.01864 13.0249 0.65332 9.96794 0.65332C6.91103 0.65332 4.40653 3.01864 4.1843 6.01875H1.57266H0.972656V6.61875V9.91901V10.519H1.57266H1.96826V10.6188V19.401V20.001H2.56826H17.3683H17.9683V19.401V10.6188V10.519H18.3638H18.9638V9.91901V6.61875V6.01875H18.3638ZM1.57266 6.61875H18.3638V9.91901H1.57266V6.61875ZM2.56826 10.6188H17.3683V19.401H2.56826V10.6188ZM14.9683 16.0188H10.9683V16.5188H14.9683V16.0188Z" fill="#8A8A8A"/>
</svg>
