<svg width="31" height="35" viewBox="0 0 31 35" fill="none" xmlns="http://www.w3.org/2000/svg">
<path d="M20.3924 9.40723L13.2779 8.7128L7.92487 6.1551L6.16342 8.01837L7.6429 29.9737L21.8708 31.4327L23.6202 29.576L21.1316 20.42L20.3924 9.40723Z" fill="#9724D6" stroke="#0D0D0D" stroke-width="0.15" stroke-linecap="round" stroke-linejoin="round"/>
<path d="M22.1454 7.54004L7.91635 6.15118L9.39583 28.1065L23.6237 29.5656L22.1454 7.54004Z" fill="#FF8EFF" stroke="#0D0D0D" stroke-width="0.15" stroke-linecap="round" stroke-linejoin="round"/>
<path d="M21.158 9.71026L20.0013 8.45856L10.6128 7.5294L10.5906 7.52239L9.25578 8.52701L10.4805 25.939L11.9997 27.2241L12.0124 27.2281L21.2233 28.1787L22.2324 27.1347L21.158 9.71026Z" fill="#FF8EFF" stroke="#0D0D0D" stroke-width="0.15" stroke-linecap="round" stroke-linejoin="round"/>
<g style="mix-blend-mode:color-dodge">
<g style="mix-blend-mode:color-dodge">
<g style="mix-blend-mode:color-dodge">
<path d="M21.5109 16.6474L12.1539 25.5063L12.1407 25.4977L10.5487 23.7068L9.86978 16.7797L17.4483 9.53795L19.9002 10.6475L21.1181 12.2645L21.5109 16.6474Z" fill="white"/>
</g>
</g>
</g>
<path d="M21.158 9.71026L20.0013 8.45856L10.6128 7.5294L10.5906 7.52239L9.25578 8.52701L10.4805 25.939L11.9997 27.2241L12.0124 27.2281L21.2233 28.1787L22.2324 27.1347L21.158 9.71026Z" stroke="#0D0D0D" stroke-width="0.2" stroke-linecap="round" stroke-linejoin="round"/>
<path d="M14.3209 18.9281C15.4768 19.0162 17.1771 18.5933 17.545 17.0609L18.5337 17.1521L19.3397 16.0589L17.6969 15.8908C17.7106 15.6323 17.6693 15.3746 17.5758 15.1361C17.4824 14.8974 17.339 14.6835 17.1557 14.5092L18.6794 14.6677L19.5035 13.5276L13.0987 12.9082L12.3125 14.0356L14.1874 14.2208C15.8733 14.3814 16.2689 15.3531 16.2634 15.7363L12.9205 15.4313L12.1524 16.512L16.0787 16.9031C15.9142 18.0271 14.5536 17.8676 13.5118 17.8261L12.5706 17.7779L12.6401 18.7621L16.0359 23.3851L17.6868 23.5276C16.546 21.9396 15.4618 20.5268 14.3209 18.9281Z" fill="#CC36CC" stroke="#0D0D0D" stroke-width="0.15" stroke-linecap="round" stroke-linejoin="round"/>
</svg>
