<svg width="79" height="79" viewBox="0 0 79 79" fill="none" xmlns="http://www.w3.org/2000/svg">
<path d="M59.7538 24.6902C60.2855 25.2175 60.5846 25.9354 60.5846 26.6847C60.5846 27.434 60.2855 28.1519 59.7538 28.6792L34.4732 53.9598C33.9428 54.4852 33.2255 54.7787 32.4787 54.7743H32.3101C31.515 54.7216 30.7802 54.3335 30.2879 53.7071L19.0521 39.6624C18.5123 39.0905 18.2364 38.3181 18.2928 37.5337C18.3486 36.7493 18.7311 36.0245 19.3468 35.5348C19.9625 35.0457 20.755 34.837 21.5319 34.9592C22.3087 35.0815 22.9984 35.5242 23.4336 36.1787L32.7031 47.7519L55.7654 24.6897C56.2927 24.158 57.0106 23.8589 57.7599 23.8589C58.5092 23.8589 59.2265 24.1585 59.7538 24.6902ZM78.8258 39.325C78.8258 49.7546 74.6827 59.7565 67.3078 67.132C59.9324 74.5067 49.9292 78.65 39.5008 78.65C29.0723 78.65 19.0693 74.5069 11.6938 67.132C4.31906 59.7567 0.175781 49.7534 0.175781 39.325C0.175781 28.8966 4.3189 18.8935 11.6938 11.518C19.0691 4.14328 29.0723 0 39.5008 0C49.9292 0 59.9323 4.14312 67.3078 11.518C74.6825 18.8933 78.8258 28.8966 78.8258 39.325ZM73.2079 39.325C73.2079 30.3853 69.6566 21.8116 63.3351 15.4906C57.0137 9.16922 48.4401 5.6179 39.5008 5.6179C30.5614 5.6179 21.9874 9.16922 15.6664 15.4906C9.345 21.8121 5.79368 30.3856 5.79368 39.325C5.79368 48.2644 9.345 56.8384 15.6664 63.1593C21.9879 69.4808 30.5614 73.0321 39.5008 73.0321C48.4401 73.0321 57.0142 69.4808 63.3351 63.1593C69.6566 56.8379 73.2079 48.2644 73.2079 39.325Z" fill="#06C270"/>
</svg>
