<svg width="33" height="32" viewBox="0 0 33 32" fill="none" xmlns="http://www.w3.org/2000/svg">
<path d="M13.791 25.9994L18.4549 10.0661C24.3945 9.75149 29.8431 10.7606 30.8301 11.2927L25.5796 29.6809C23.0261 28.1636 16.2427 25.7141 13.791 25.9994Z" fill="#AA3FFF" stroke="#0D0D0D" stroke-width="0.318937" stroke-linecap="round" stroke-linejoin="round"/>
<path d="M13.7881 26.0019L18.7995 8.84036C24.7391 8.5257 29.2409 9.53402 30.2279 10.0661L24.9774 28.4543C22.4239 26.937 16.2398 25.7166 13.7881 26.0019Z" fill="#AA3FFF" stroke="#0D0D0D" stroke-width="0.318937" stroke-linejoin="round"/>
<path d="M13.7832 26.0011L19.1952 7.45082C25.1348 7.13616 28.5937 8.12162 29.5807 8.65368L24.3303 27.0419C21.7767 25.5246 16.2349 25.7158 13.7832 26.0011Z" fill="white" stroke="#0D0D0D" stroke-width="0.318937" stroke-linejoin="round"/>
<path d="M18.1064 13.4146L20.0745 7.42749H23.1331L21.2248 13.2206L20.3827 11.1026L18.1064 13.4146Z" fill="#FFF066" stroke="#0D0D0D" stroke-width="0.318937" stroke-linecap="round" stroke-linejoin="round"/>
<path d="M13.7776 26.0155L16.8586 8.88025C14.5271 6.78926 9.94005 4.84597 7.92008 4.09814C5.68111 10.0749 3.2247 18.8781 2.27637 22.5326C6.14367 23.7169 12.3358 24.9053 13.7776 26.0155Z" fill="#AA3FFF" stroke="#0D0D0D" stroke-width="0.318937" stroke-linecap="round" stroke-linejoin="round"/>
<path d="M13.7658 25.9806L17.8967 8.11389C15.5652 6.0229 10.9781 4.07961 8.95816 3.33179C6.7192 9.30854 4.26279 18.1117 3.31445 21.7663C7.18176 22.9505 12.3241 24.8703 13.7658 25.9806Z" fill="#AA3FFF" stroke="#0D0D0D" stroke-width="0.318937" stroke-linejoin="round"/>
<path d="M13.7794 25.9872L19.1926 7.44275C16.8611 5.35176 12.274 3.40847 10.2541 2.66064C8.01509 8.63739 5.55868 17.4406 4.61035 21.0951C8.47766 22.2794 12.3377 24.8769 13.7794 25.9872Z" fill="white" stroke="#0D0D0D" stroke-width="0.318937" stroke-linejoin="round"/>
<path d="M16.8301 19.7257C18.7554 19.3347 22.1175 19.1137 25.0429 20.7637" stroke="#0D0D0D" stroke-width="0.318937" stroke-linecap="round" stroke-linejoin="round"/>
<path d="M16.2754 21.077C18.2007 20.686 21.6138 20.6732 24.4882 22.115" stroke="#0D0D0D" stroke-width="0.318937" stroke-linecap="round" stroke-linejoin="round"/>
<path d="M15.8125 22.4284C17.7379 22.0373 21.4781 22.0267 24.0254 23.4663" stroke="#0D0D0D" stroke-width="0.318937" stroke-linecap="round" stroke-linejoin="round"/>
</svg>
