<svg width="20" height="21" viewBox="0 0 20 21" fill="none" xmlns="http://www.w3.org/2000/svg">
<rect width="20" height="20" transform="translate(0 0.5)" fill="white"/>
<path d="M15.5317 6.2124H15.7817V5.98931L15.5601 5.96401L15.5317 6.2124ZM10.0169 16.616L9.78944 16.7197L9.99679 17.1746L10.2243 17.071L10.0169 16.616ZM9.93781 4.36688C10.8449 4.95147 13.2605 6.2048 15.5034 6.46079L15.5601 5.96401C13.426 5.72045 11.0859 4.51194 10.2087 3.9466L9.93781 4.36688ZM15.2817 6.2124C15.2817 8.06025 15.5601 14.0898 10.0169 16.616L10.2243 17.071C16.1002 14.3931 15.7817 7.99246 15.7817 6.2124H15.2817Z" fill="#0D0D0D"/>
<path d="M4.46728 6.2124H4.21728V5.98931L4.43894 5.96401L4.46728 6.2124ZM9.98209 16.616L10.2096 16.7197L10.0022 17.1746L9.77474 17.071L9.98209 16.616ZM10.0612 4.36688C9.15411 4.95147 6.73854 6.2048 4.49563 6.46079L4.43894 5.96401C6.57303 5.72045 8.91312 4.51194 9.79035 3.9466L10.0612 4.36688ZM4.71728 6.2124C4.71728 8.06025 4.4389 14.0898 9.98209 16.616L9.77474 17.071C3.89881 14.3931 4.21728 7.99246 4.21728 6.2124H4.71728Z" fill="#0D0D0D"/>
<rect x="7.72168" y="9.64453" width="4.5557" height="2.99455" stroke="#0D0D0D" stroke-width="0.5"/>
<path d="M8.56738 8.87312C8.56738 8.08214 9.2086 7.44092 9.99959 7.44092C10.7906 7.44092 11.4318 8.08214 11.4318 8.87312V9.63196H8.56738V8.87312Z" stroke="#0D0D0D" stroke-width="0.5"/>
<circle cx="9.99932" cy="11.1419" r="0.554005" stroke="#0D0D0D" stroke-width="0.5"/>
</svg>
